# xmcd
#
# Track frame offsets:
#	150
#	15733
#	34071
#	49204
#	60056
#	78188
#	96049
#	112318
#	127638
#	143487
#	159556
#	179401
#	194573
#	209458
#	224549
#	240877
#	256890
#	272846
#	292775
#	306741
#	323711
#
# Disc length: 4609 seconds
#
# Revision: 0
# Processed by: cddbd v1.5.2PL0 Copyright (c) Steve Scherf et al.
# Submitted via: EasyCDDAExtractor 16.0.9.1
#
DISCID=2711ff15
DTITLE=Hott Urban Trakks Volume 2 Canada
DYEAR=2015
DGENRE=blues
TTITLE0=Janet Jackson\n - No Sleeep\n
TTITLE1=The Weeknd\n - The Hills\n
TTITLE2=Omarion ft. Kid Ink and French Montana\n - I'm Up\n
TTITLE3=T-Wayne\n - Nasty Freestyle\n
TTITLE4=Tamar Braxton\n - If I Don't Have You\n
TTITLE5=Ciara\n - Dance Like We're Making Love\n
TTITLE6=Natalie La Rose ft. Fetty Wap\n - All Around The World\n
TTITLE7=Jill Scott\n - Fools Gold\n
TTITLE8=August Alsina\n - Hip Hop\n
TTITLE9=Sage The Gemini ft. Trey Songz\n - Guantanamera\n
TTITLE10=History In The Making\n - Walk Away\n
TTITLE11=Monica ft. Lil Wayne\n - Just Right For Me\n
TTITLE12=Trey Songz\n - About You\n
TTITLE13=Alessia Cara\n - Here\n
TTITLE14=The Weeknd\n - Can't Feel My Face\n
TTITLE15=K Camp\n - Comfortable\n
TTITLE16=Rae Sremmurd\n - Come Get Her\n
TTITLE17=DJ Khaled ft. Chris Brown, Lil Wayne and Big Sean\n - How Many Times\n
TTITLE18=Avery Wilson\n - If I Have To\n
TTITLE19=Meek Mill ft. Chris Brown and Nicki Minaj - All Eyes On You
TTITLE20=Travi$ Scott ft. Future and 2 Chainz - 3500
EXTD=
EXTT0=
EXTT1=
EXTT2=
EXTT3=
EXTT4=
EXTT5=
EXTT6=
EXTT7=
EXTT8=
EXTT9=
EXTT10=
EXTT11=
EXTT12=
EXTT13=
EXTT14=
EXTT15=
EXTT16=
EXTT17=
EXTT18=
EXTT19=
EXTT20=
PLAYORDER=
